<?xml version="1.0" standalone="no"?>
<!DOCTYPE svg PUBLIC "-//W3C//DTD SVG 20010904//EN"
 "http://www.w3.org/TR/2001/REC-SVG-20010904/DTD/svg10.dtd">
<svg version="1.0" xmlns="http://www.w3.org/2000/svg"
 width="81.000000pt" height="81.000000pt" viewBox="0 0 81.000000 81.000000"
 preserveAspectRatio="xMidYMid meet">
<metadata>
Created by potrace 1.11, written by Peter Selinger 2001-2013
</metadata>
<g transform="translate(0.000000,81.000000) scale(0.100000,-0.100000)"
fill="#000000" stroke="none">
<path d="M116 781 c-7 -11 2 -59 16 -85 11 -21 46 -51 60 -51 3 0 10 -3 14 -7
18 -19 34 -7 34 25 0 33 -20 71 -50 94 -23 18 -69 33 -74 24z"/>
<path d="M341 679 l-44 -40 29 -26 c16 -13 47 -40 69 -58 21 -19 36 -37 33
-41 -4 -3 -35 3 -70 14 -138 45 -128 45 -199 -10 -35 -27 -73 -57 -84 -66 -11
-10 -31 -25 -45 -35 l-24 -17 44 -1 c37 0 133 -15 209 -32 8 -2 17 -9 19 -15
2 -8 -24 -11 -87 -11 -50 0 -94 -2 -99 -5 -6 -4 -9 -102 -3 -126 1 -3 14 -6
31 -7 34 -2 208 -45 281 -69 62 -21 63 -35 2 -28 -27 3 -108 6 -182 7 l-134 2
-2 -42 -1 -43 55 -1 c471 -5 574 -2 577 14 1 8 -5 22 -14 30 -30 27 -170 106
-176 100 -3 -4 -6 1 -6 11 0 14 6 16 43 10 23 -4 51 -8 62 -10 11 -1 22 -3 25
-4 3 -1 8 -2 12 -1 4 0 18 -3 31 -8 23 -9 24 -7 21 22 -2 17 -13 40 -24 52
-24 25 -25 35 -5 35 8 0 15 -5 15 -11 0 -5 4 -8 9 -5 13 8 6 61 -11 85 -8 12
-32 40 -53 62 -20 22 -35 43 -32 46 3 3 40 -13 82 -36 42 -22 86 -41 98 -41
23 0 23 0 -89 97 -27 24 -56 49 -64 56 -40 36 -239 187 -246 187 -5 0 -29 -19
-53 -41z"/>
</g>
</svg>
